<?xml version="1.0" standalone="no"?>
<!DOCTYPE svg PUBLIC "-//W3C//DTD SVG 20010904//EN"
 "http://www.w3.org/TR/2001/REC-SVG-20010904/DTD/svg10.dtd">
<svg version="1.0" xmlns="http://www.w3.org/2000/svg"
 width="512.000000pt" height="512.000000pt" viewBox="0 0 512.000000 512.000000"
 preserveAspectRatio="xMidYMid meet">
<metadata>
Created by potrace 1.11, written by Peter Selinger 2001-2013
</metadata>
<g transform="translate(0.000000,512.000000) scale(0.100000,-0.100000)"
fill="#000000" stroke="none">
<path d="M537 3786 c-59 -16 -96 -42 -122 -87 -16 -27 -20 -52 -20 -124 0 -78
3 -96 25 -134 41 -72 78 -85 248 -89 100 -3 142 -7 142 -15 0 -7 -123 -354
-274 -772 l-273 -760 -64 -6 c-67 -6 -99 -18 -137 -53 -44 -39 -56 -75 -57
-166 0 -72 4 -92 25 -129 52 -92 119 -104 548 -99 276 3 322 6 357 21 83 37
114 93 115 205 0 160 -68 222 -245 222 -39 0 -74 3 -77 6 -3 3 6 38 21 77 15
40 35 93 45 120 l18 47 445 -2 446 -3 38 -105 c53 -147 55 -140 -40 -140 -128
0 -206 -40 -232 -119 -21 -63 -15 -175 12 -228 50 -96 109 -106 591 -101 322
3 367 5 403 21 87 39 118 94 118 207 0 71 -25 141 -61 173 -30 27 -90 46 -145
47 -45 0 -49 2 -62 32 -7 18 -159 434 -338 925 -179 490 -338 909 -352 931
-32 48 -85 86 -140 101 -61 17 -896 14 -958 -3z m864 -874 l146 -427 -295 -3
c-162 -1 -296 -1 -298 1 -5 4 289 857 295 857 4 0 72 -193 152 -428z"/>
<path d="M2897 3786 c-59 -16 -96 -42 -122 -87 -31 -52 -29 -199 3 -254 34
-60 81 -87 160 -94 l67 -6 0 -770 0 -770 -61 -6 c-89 -8 -133 -35 -166 -99
-45 -85 -36 -215 18 -279 52 -62 80 -66 474 -66 380 0 402 2 460 51 45 38 63
99 58 192 -8 131 -61 190 -184 200 l-64 5 0 273 0 274 111 0 c97 0 116 -3 151
-22 43 -24 67 -58 418 -602 85 -132 174 -260 197 -286 65 -72 100 -83 284 -88
166 -4 266 6 324 34 108 51 127 281 29 362 -44 37 -95 52 -171 52 -45 0 -64 4
-75 18 -8 9 -95 145 -194 302 -98 157 -195 301 -214 320 l-36 36 100 49 c172
84 298 230 352 410 15 46 19 92 18 200 0 124 -4 149 -27 220 -60 182 -190 307
-389 376 -176 60 -196 62 -863 65 -485 3 -620 1 -658 -10z m1114 -450 c84 -18
137 -45 176 -90 41 -46 57 -96 57 -181 1 -83 -15 -134 -57 -181 -69 -79 -160
-101 -464 -110 l-223 -7 0 291 0 292 223 0 c152 0 243 -5 288 -14z"/>
</g>
</svg>
