<?xml version="1.0" encoding="UTF-8" standalone="no"?>
<svg width="84px" height="84px" viewBox="0 0 84 84" version="1.1" xmlns="http://www.w3.org/2000/svg" xmlns:xlink="http://www.w3.org/1999/xlink" xmlns:sketch="http://www.bohemiancoding.com/sketch/ns">
    <!-- Generator: Sketch 3.1.1 (8761) - http://www.bohemiancoding.com/sketch -->
    <title>Facebook</title>
    <desc>Created with Sketch.</desc>
    <defs></defs>
    <g id="Page-1" stroke="none" stroke-width="1" fill="none" fill-rule="evenodd" sketch:type="MSPage">
        <g id="Desktop" sketch:type="MSArtboardGroup" transform="translate(-838.000000, -9448.000000)">
            <g id="Footer" sketch:type="MSLayerGroup" transform="translate(0.000000, 9069.000000)">
                <g id="Social-Links" transform="translate(700.000000, 381.000000)" sketch:type="MSShapeGroup">
                    <g id="Facebook" transform="translate(140.000000, 0.000000)">
                        <ellipse id="Outline" stroke="#14181C" stroke-width="4" cx="40" cy="40" rx="40" ry="40"></ellipse>
                        <path d="M42.3325855,57 L42.3325855,41.0349495 L47.9342988,41.0349495 L48.7729733,34.8129744 L42.3325855,34.8129744 L42.3325855,30.8405183 C42.3325855,29.0391113 42.855425,27.8115533 45.5558473,27.8115533 L49,27.8100087 L49,22.2451409 C48.4040147,22.1694515 46.3598059,22 43.9813545,22 C39.0156711,22 35.6160841,24.8995207 35.6160841,30.2244995 L35.6160841,34.8129744 L30,34.8129744 L30,41.0349495 L35.6160841,41.0349495 L35.6160841,57 L42.3325855,57" id="Icon" fill="#14181C"></path>
                    </g>
                </g>
            </g>
        </g>
    </g>
</svg>