<svg viewBox="0 0 80 80">
  <g fill="#fff">
    <ellipse cx="40" cy="40" rx="38" ry="38" stroke-width="4"/>
    <path
      d="M29 47.5C29.7 48.1 30.1 48.8 30.1 48.8 30.1 48.9 30.2 48.9 30.2 49L30.2
      49C30.2 49 30.2 49 30.1 49 30 49.2 30 49.5 30.1 49.7 30.3 50 30.7 50.1 30.9 50
      30.9 49.9 30.9 49.9 30.9 49.9 32.5 51.3 34.4 50.7 35.2 50.3 35.4 49.1 35.8 48.3
      36.3 47.9 32.4 47.4 28.3 45.9 28.3 39 28.3 37 29 35.4 30.1 34.2 30 33.7 29.4
      31.9 30.3 29.4 30.3 29.4 31.8 29 35.1 31.3 36.5 30.9 38 30.7 39.5 30.7 41 30.7
      42.5 30.9 43.9 31.3 47.2 29 48.7 29.4 48.7 29.4 49.6 31.9 49 33.7 48.9 34.2 50
      35.4 50.7 37 50.7 39 50.7 45.9 46.6 47.4 42.7 47.9 43.3 48.4 43.9 49.5 43.9 51.2
      43.9 53.6 43.8 55.5 43.8 56.1 43.8 56.6 44.2 57.1 45 57 52 54.6 57 47.9 57 39.9
      57 30 49.2 22 39.5 22 29.8 22 22 30 22 39.9 22 47.9 27 54.6 34 57 34.8 57.1 35.2
      56.6 35.2 56.1 35.2 55.7 35.1 54.3 35.1 52.8 30.3 53.9 29.2 50.6 29.2 50.6 28.4
      48.6 27.3 48 27.3 48 25.7 46.9 27.4 46.9 27.4 46.9 27.7 47 27.9 47 28.1 47.1
      28.1 47.1 28 47.2 28 47.2 27.9 47.5 28.1 47.8 28.4 47.9 28.6 48.1 28.9 48 29
      47.8 29 47.7 29 47.6 29 47.5ZM28.9 48.9C28.7 49.1 28.4 49 28.2 48.8 28 48.5 27.9
      48.2 28.1 48.1 28.3 47.9 28.6 48 28.8 48.2 29 48.5 29.1 48.8 28.9 48.9ZM30.9
      51.9C30.8 52.1 30.5 52 30.2 51.8 30 51.6 29.9 51.3 30.1 51.1 30.2 50.9 30.5 51
      30.8 51.2 31 51.4 31.1 51.7 30.9 51.9ZM33 51.7C32.9 52 32.7 52.1 32.4 52 32.1
      51.8 32 51.6 32 51.3 32.1 51 32.3 50.9 32.6 51 32.9 51.2 33 51.4 33 51.7ZM34
      51.5C34 51.8 33.8 52 33.5 52 33.2 52 33 51.8 33 51.5 33 51.2 33.2 51 33.5 51
      33.8 51 34 51.2 34 51.5ZM35 51.4C35 51.6 34.8 51.9 34.6 52 34.3 52.1 34 51.9 34
      51.6 34 51.4 34.2 51.1 34.4 51 34.7 50.9 35 51.1 35 51.4Z"/>
  </g>
</svg>
