<?xml version="1.0" encoding="UTF-8" standalone="no"?>
<svg width="84px" height="84px" viewBox="0 0 84 84" version="1.1" xmlns="http://www.w3.org/2000/svg" xmlns:xlink="http://www.w3.org/1999/xlink" xmlns:sketch="http://www.bohemiancoding.com/sketch/ns">
    <!-- Generator: Sketch 3.1.1 (8761) - http://www.bohemiancoding.com/sketch -->
    <title>GitHub</title>
    <desc>Created with Sketch.</desc>
    <defs></defs>
    <g id="Page-1" stroke="none" stroke-width="1" fill="none" fill-rule="evenodd" sketch:type="MSPage">
        <g id="Desktop" sketch:type="MSArtboardGroup" transform="translate(-1118.000000, -9448.000000)">
            <g id="Footer" sketch:type="MSLayerGroup" transform="translate(0.000000, 9069.000000)">
                <g id="Social-Links" transform="translate(700.000000, 381.000000)" sketch:type="MSShapeGroup">
                    <g id="GitHub" transform="translate(420.000000, 0.000000)">
                        <ellipse id="Outline" stroke="#14181C" stroke-width="4" cx="40" cy="40" rx="40" ry="40"></ellipse>
                        <path d="M28.9897976,47.5340514 C29.7237454,48.0752642 30.10296,48.7811658 30.10296,48.7811658 C30.1482069,48.8606851 30.1942708,48.9372328 30.2410907,49.0109032 L30.2410907,49.0109032 C30.2084041,49.0189159 30.1774551,49.0314261 30.1489459,49.0487005 C29.951055,49.1676564 29.951055,49.4645849 30.1447577,49.7121791 C30.3405546,49.9597732 30.6572848,50.0708909 30.8509875,49.9523961 C30.8884599,49.9294343 30.9188366,49.9001735 30.9421495,49.8661134 C32.456624,51.2720974 34.3613808,50.6557111 35.1955289,50.2727555 C35.3525978,49.1130593 35.8061271,48.3215066 36.3066032,47.8734354 C32.4195819,47.4197188 28.3334713,45.8811827 28.3334713,39.0059051 C28.3334713,37.0469308 29.0170979,35.4462947 30.1365763,34.1897343 C29.9548748,33.7378005 29.3558684,31.9128316 30.3061064,29.4413091 C30.3061064,29.4413091 31.7756572,28.9590681 35.1198924,31.2805402 C36.5158352,30.8829811 38.0129166,30.6836072 39.5001449,30.6767732 C40.9873732,30.6836072 42.4856137,30.8829811 43.8841648,31.2805402 C47.2243428,28.9590681 48.691865,29.4413091 48.691865,29.4413091 C49.6444214,31.9128316 49.0451252,33.7378005 48.8634237,34.1897343 C49.9855102,35.4462947 50.6645001,37.0469308 50.6645001,39.0059051 C50.6645001,45.8975248 46.5705651,47.4149647 42.6736907,47.8591732 C43.3013869,48.4159937 43.8606914,49.5079443 43.8606914,51.1819715 C43.8606914,53.5827772 43.8404057,55.5150098 43.8404057,56.1060002 C43.8404057,56.5834872 44.155413,57.1429818 45.0424757,56.9667841 C51.9920513,54.5915315 57,47.8680871 57,39.9430513 C57,30.0331909 49.1648106,22 39.5001449,22 C29.8363486,22 22,30.0331909 22,39.9430513 C22,47.8707612 27.0143242,54.5965827 33.9676671,56.9691611 C34.8422687,57.1352565 35.1633616,56.5799216 35.1633616,56.1060002 C35.1633616,55.6781338 35.1471331,54.2646892 35.1395984,52.7653741 C30.2710412,53.8507879 29.2437177,50.648327 29.2437177,50.648327 C28.4476506,48.5743637 27.3006417,48.0228915 27.3006417,48.0228915 C25.7128545,46.9092504 27.4203271,46.9321294 27.4203271,46.9321294 C27.6736773,46.9503779 27.9097347,47.0017962 28.1282196,47.0764409 C28.0815064,47.1139849 28.0453477,47.1648904 28.0242306,47.2281135 C27.938788,47.4562416 28.0868083,47.7662229 28.3503567,47.9155293 C28.6090914,48.0716568 28.8930979,48.0034458 28.9731252,47.7760756 C29.0029961,47.7015686 29.0070652,47.618007 28.9897976,47.5340514 Z M28.8962745,48.9224902 C28.7336941,49.0695865 28.4158719,49.0012721 28.200227,48.7687827 C27.9772434,48.5368443 27.9354693,48.2266748 28.1003078,48.0773748 C28.2679689,47.9302784 28.5761943,47.9991438 28.7997424,48.2310822 C29.0227259,48.4657753 29.0661936,48.773741 28.8962745,48.9224902 Z M30.9165056,51.9006609 C30.7700874,52.0656013 30.45823,52.0213159 30.229977,51.7962739 C29.9964157,51.5762027 29.9313901,51.2639456 30.0782506,51.0990051 C30.2264382,50.9336128 30.540065,50.9801576 30.7700874,51.2033921 C31.0018793,51.4230114 31.0726554,51.737528 30.9165056,51.9006609 Z M32.9896999,51.7011284 C32.9324968,51.9525646 32.6664633,52.0668537 32.3984707,51.9600067 C32.1308699,51.8499701 31.9557344,51.5554762 32.0098031,51.3013822 C32.065439,51.0483514 32.332648,50.929278 32.6025995,51.0435672 C32.8698085,51.1530721 33.0453358,51.4454397 32.9896999,51.7011284 Z M33.9998596,51.4891487 C34.0064097,51.7655364 33.7829344,51.9947494 33.5062873,51.9997444 C33.228099,52.0086243 33.0030824,51.7849612 33,51.5130135 C33,51.2338509 33.2184664,51.0068579 33.4966547,51.0001979 C33.7733018,50.992428 33.9998596,51.2144261 33.9998596,51.4891487 Z M34.9962719,51.3756526 C35.0295492,51.6400611 34.8364631,51.9115423 34.5605705,51.9839011 C34.2893213,52.0535395 34.0381933,51.8903244 34.0037551,51.628092 C33.9700908,51.3571549 34.1666594,51.0856737 34.4375217,51.0154912 C34.7138012,50.9480289 34.9610598,51.1068917 34.9962719,51.3756526 Z" id="Icon" fill="#000000"></path>
                    </g>
                </g>
            </g>
        </g>
    </g>
</svg>