<svg viewBox="0 0 80 80">
  <g fill="#fff">
    <ellipse cx="40" cy="40" rx="38" ry="38" stroke-width="4"/>
    <path
      d="M60 39.4L55.6 39.4 55.6 35 53.4 35 53.4 39.4 49 39.4 49 41.6 53.4 41.6 53.4 46
      55.6 46 55.6 41.6 60 41.6 60 39.4M37.2 57C32.2 57 29 54.7 29 51.4 29 48.2 32
      47.1 33 46.7 34.9 46.1 37.5 46 37.9 46 38.3 46 38.6 46 38.9 46 42.5 48.5 44 49.7
      44 52.1 44 54.9 41.6 57 37.2 57L37.2 57ZM36.7 39C32.8 39 31 33.9 31 30.9 31 29.7
      31.2 28.3 32 27.4 32.7 26.5 34 26 35.2 26 39 26 41 31.1 41 34.4 41 35.2 40.9
      36.6 39.9 37.6 39.1 38.3 37.9 39 36.7 39L36.7 39ZM43.9 43.9L42.2 42.6C41.7 42.2
      41 41.6 41 40.6 41 39.6 41.7 39 42.3 38.4 44.3 36.9 46.3 35.3 46.3 31.9 46.3
      28.4 44.1 26.7 43 25.8L45.9 25.8 49 24 39 24C36.4 24 32.9 24.3 30.1 26.4 28.1
      28.1 27.4 30.6 27.4 32.7 27.4 36.3 30.3 39.9 35.4 39.9 35.9 39.9 36.4 39.9 36.9
      39.8 36.7 40.4 36.4 40.8 36.4 41.6 36.4 43 37.2 43.9 37.9 44.7 35.7 44.9 31.7
      45.1 28.7 46.8 25.9 48.4 25 50.8 25 52.4 25 55.8 28.2 59 35.2 59 43.5 59 48 54.6
      48 50.3 48 47.1 46 45.6 43.9 43.9L43.9 43.9Z"/>
  </g>
</svg>
