<?xml version="1.0" encoding="UTF-8" standalone="no"?>
<svg width="84px" height="84px" viewBox="0 0 84 84" version="1.1" xmlns="http://www.w3.org/2000/svg" xmlns:xlink="http://www.w3.org/1999/xlink" xmlns:sketch="http://www.bohemiancoding.com/sketch/ns">
    <!-- Generator: Sketch 3.1.1 (8761) - http://www.bohemiancoding.com/sketch -->
    <title>Google+</title>
    <desc>Created with Sketch.</desc>
    <defs></defs>
    <g id="Page-1" stroke="none" stroke-width="1" fill="none" fill-rule="evenodd" sketch:type="MSPage">
        <g id="Desktop" sketch:type="MSArtboardGroup" transform="translate(-698.000000, -9448.000000)">
            <g id="Footer" sketch:type="MSLayerGroup" transform="translate(0.000000, 9069.000000)">
                <g id="Social-Links" transform="translate(700.000000, 381.000000)" sketch:type="MSShapeGroup">
                    <g id="Google+">
                        <ellipse id="Outline" stroke="#14181C" stroke-width="4" cx="40" cy="40" rx="40" ry="40"></ellipse>
                        <path d="M60,39.4197218 L55.6195664,39.4197218 L55.6195664,35 L53.3806283,35 L53.3806283,39.4197218 L49,39.4197218 L49,41.5804747 L53.3806283,41.5804747 L53.3806283,46 L55.6195664,46 L55.6195664,41.5804747 L60,41.5804747 L60,39.4197218 M37.1730881,57 C32.2053028,57 29,54.6717307 29,51.4312697 C29,48.190605 31.9714562,47.0966272 32.9928623,46.7316282 C34.9430146,46.0922178 37.4517834,46 37.870848,46 C38.3333311,46 38.5655431,46 38.9356726,46.0467712 C42.4675843,48.5122972 44,49.7405767 44,52.071903 C44,54.8970274 41.6297616,57 37.1730881,57 L37.1730881,57 Z M36.7353654,39 C32.7894631,39 31,33.9363811 31,30.881404 C31,29.6939006 31.2285022,28.3497473 32.0077715,27.3913112 C32.7439443,26.4784033 34.0269479,26 35.2214372,26 C39.0276544,26 41,31.1085361 41,34.392886 C41,35.2141262 40.9087606,36.5568535 39.8540573,37.6083833 C39.1178845,38.3388726 37.8815099,39 36.7353654,39 L36.7353654,39 Z M43.9339254,43.8868149 L42.2017127,42.6065742 C41.6737499,42.1924148 40.9533777,41.6423513 40.9533777,40.6357608 C40.9533777,39.6270212 41.6737499,38.9834213 42.2987631,38.3884318 C44.3167354,36.8781366 46.3348134,35.2714397 46.3348134,31.8815138 C46.3348134,28.3967211 44.1451528,26.7142945 43.0405963,25.843608 L45.8886775,25.843608 L49,24.0019444 L38.9816048,24 C36.3853473,24 32.8841315,24.2594253 30.1442013,26.4135249 C28.0799239,28.1080273 27.4022624,30.59851 27.4022624,32.7066601 C27.4022624,36.2786442 30.2857596,39.9004667 35.3788984,39.9004667 C35.8602389,39.9004667 36.3865102,39.8547218 36.917116,39.8096934 C36.6776615,40.3591428 36.4358812,40.8185353 36.4358812,41.5972205 C36.4358812,43.0167424 37.2043556,43.8868149 37.8784227,44.7119612 C35.7164605,44.8514471 31.6776615,45.0798641 28.7010255,46.820623 C25.8626705,48.4268083 25,50.7616358 25,52.4126448 C25,55.8055385 28.2252881,59 35.1941009,59 C43.4580822,59 47.9688128,54.6134103 47.9688128,50.3059274 C47.9688128,47.1427811 46.0475737,45.5835687 43.9339254,43.8868149 L43.9339254,43.8868149 Z" id="Icon" fill="#14181C"></path>
                    </g>
                </g>
            </g>
        </g>
    </g>
</svg>