<svg viewBox="0 0 80 80">
  <g fill="#fff">
    <ellipse stroke-width="4" cx="40" cy="40" rx="38" ry="38" />
    <g transform="translate(23, 22)" fill="#000">
      <path d="M4.6 0.6C6.7 0.6 8.5 2.4 8.5 4.6 8.5 6.8 6.7 8.5 4.6 8.5 2.4 8.5 0.6 6.8 0.6 4.6 0.6 2.4 2.4 0.6 4.6 0.6L4.6 0.6ZM1.2 11.5L8 11.5 8 33.4 1.2 33.4 1.2 11.5ZM12.2 11.5L18.7 11.5 18.7 14.5 18.8 14.5C19.7 12.8 21.9 11 25.2 11 32.1 11 33.4 15.5 33.4 21.4L33.4 33.4 26.6 33.4 26.6 22.7C26.6 20.2 26.5 16.9 23.1 16.9 19.5 16.9 19 19.7 19 22.5L19 33.4 12.2 33.4 12.2 11.5" />
    </g>
  </g>
</svg>
