<svg width="77" height="70">
  <rect stroke="#FFF" stroke-width="2" x="0" y="0" width="77" height="70"/>
  <path d="M14.9 59.6L10.5 59.6C15.2 36.8 15.7 33.2 20.3 10.4L26.2 10.4 35.9 59.6 31.4 59.6 29 46.9 17.4 46.9 14.9 59.6ZM18 43.8L28.4 43.8 23.2 14.8 18 43.8ZM41.7 59.6L41.7 10.4 55 10.4C63.7 10.4 65.7 16.3 65.7 23.1 65.7 28.1 64.2 33.1 58.8 35L66.5 59.6 61.8 59.6 54.4 35.6 46 35.6 46 59.6 41.7 59.6ZM46.2 32.2L55 32.2C60.3 32.2 61.4 27.7 61.4 23 61.4 18.2 60.2 13.9 55 13.9L46.2 13.9 46.2 32.2Z" fill="#FFF"/>
</svg>
