<?xml version="1.0" encoding="UTF-8" standalone="no"?>
<svg width="84px" height="84px" viewBox="0 0 84 84" version="1.1" xmlns="http://www.w3.org/2000/svg" xmlns:xlink="http://www.w3.org/1999/xlink" xmlns:sketch="http://www.bohemiancoding.com/sketch/ns">
    <!-- Generator: Sketch 3.1.1 (8761) - http://www.bohemiancoding.com/sketch -->
    <title>Twitter</title>
    <desc>Created with Sketch.</desc>
    <defs></defs>
    <g id="Page-1" stroke="none" stroke-width="1" fill="none" fill-rule="evenodd" sketch:type="MSPage">
        <g id="Desktop" sketch:type="MSArtboardGroup" transform="translate(-978.000000, -9448.000000)">
            <g id="Footer" sketch:type="MSLayerGroup" transform="translate(0.000000, 9069.000000)">
                <g id="Social-Links" transform="translate(700.000000, 381.000000)" sketch:type="MSShapeGroup">
                    <g id="Twitter" transform="translate(280.000000, 0.000000)">
                        <ellipse id="Outline" stroke="#14181C" stroke-width="4" cx="40" cy="40" rx="40" ry="40"></ellipse>
                        <path d="M53.8759498,31.7437491 C55.3581999,30.8064798 56.4969249,29.3223163 57.033125,27.5537235 C55.6455499,28.4217773 54.1088748,29.0519147 52.4731497,29.3915317 C51.1634497,27.9195501 49.2972496,27 47.2318995,27 C43.2663993,27 40.0511591,30.390818 40.0511591,34.5732761 C40.0511591,35.1668676 40.1146491,35.744955 40.2370966,36.2992322 C34.2693163,35.9834252 28.978156,32.9682163 25.4366634,28.3861545 C24.8184933,29.5046759 24.4643931,30.8057415 24.4643931,32.1937417 C24.4643931,34.8213442 25.7320459,37.1394153 27.658901,38.4975144 C26.4818159,38.4582 25.3745384,38.1174755 24.4064926,37.5502781 C24.4058101,37.5818403 24.4058101,37.6134026 24.4058101,37.6455185 C24.4058101,41.3149148 26.8810277,44.3757506 30.1658479,45.0717256 C29.5633928,45.2447642 28.9290178,45.3374206 28.2741328,45.3374206 C27.8114152,45.3374206 27.3615952,45.2898373 26.9230802,45.2015 C27.8368427,48.2102119 30.4887054,50.4000221 33.6309005,50.4608764 C31.1733929,52.4923402 28.0772578,53.7031119 24.7129491,53.7031119 C24.1333298,53.7031119 23.5617098,53.6671384 23,53.5972031 C26.1777552,55.745975 29.9522253,57 34.0072906,57 C47.2151012,57 54.4378766,45.4597012 54.4378766,35.4514815 C54.4378766,35.1231235 54.4307016,34.7966112 54.4168766,34.4717601 C55.8200249,33.4038121 57.037325,32.0700768 58,30.5512133 C56.7123499,31.1536644 55.3282749,31.5606512 53.8759498,31.7437491 Z" id="Icon" fill="#14181C"></path>
                    </g>
                </g>
            </g>
        </g>
    </g>
</svg>