<svg viewBox="0 0 80 80">
  <g fill="#fff">
    <ellipse stroke-width="4" cx="40" cy="40" rx="38" ry="38" />
    <path d="M53.9 31.7C55.4 30.8 56.5 29.3 57 27.6 55.6 28.4 54.1 29.1 52.5 29.4 51.2 27.9 49.3 27 47.2 27 43.3 27 40.1 30.4 40.1 34.6 40.1 35.2 40.1 35.7 40.2 36.3 34.3 36 29 33 25.4 28.4 24.8 29.5 24.5 30.8 24.5 32.2 24.5 34.8 25.7 37.1 27.7 38.5 26.5 38.5 25.4 38.1 24.4 37.6 24.4 37.6 24.4 37.6 24.4 37.6 24.4 41.3 26.9 44.4 30.2 45.1 29.6 45.2 28.9 45.3 28.3 45.3 27.8 45.3 27.4 45.3 26.9 45.2 27.8 48.2 30.5 50.4 33.6 50.5 31.2 52.5 28.1 53.7 24.7 53.7 24.1 53.7 23.6 53.7 23 53.6 26.2 55.7 30 57 34 57 47.2 57 54.4 45.5 54.4 35.5 54.4 35.1 54.4 34.8 54.4 34.5 55.8 33.4 57 32.1 58 30.6 56.7 31.2 55.3 31.6 53.9 31.7Z"
    />
  </g>
</svg>
